<svg width="23" height="36" viewBox="0 0 23 36" fill="none" xmlns="http://www.w3.org/2000/svg">
<g clip-path="url(#clip0_1_16)">
<rect x="0.615368" y="0.615368" width="21.661" height="34.7068" rx="3.07684" stroke="white" stroke-width="1.23074"/>
<path d="M3.44611 0.755676H19.4457V2.47871C19.4457 3.15842 18.8947 3.70944 18.2149 3.70944H4.67684C3.99713 3.70944 3.44611 3.15842 3.44611 2.47871V0.755676Z" fill="white"/>
<path d="M0.915649 31.5905C0.915649 30.9584 1.4281 30.4459 2.06023 30.4459H20.8314C21.4636 30.4459 21.976 30.9584 21.976 31.5905V33.5646C21.976 34.2443 21.425 34.7953 20.7453 34.7953H2.14638C1.46667 34.7953 0.915649 34.2443 0.915649 33.5646V31.5905Z" fill="white"/>
<rect x="8.61511" y="1.4769" width="3.93836" height="1.23074" rx="0.492294" fill="black"/>
<circle cx="13.6611" cy="2.09227" r="0.615368" fill="black"/>
<circle cx="11.4458" cy="33.4219" r="1.3735" fill="black"/>
</g>
<defs>
<clipPath id="clip0_1_16">
<rect width="23" height="35.9375" fill="white"/>
</clipPath>
</defs>
</svg>
